<mxfile host="app.diagrams.net" agent="Mozilla/5.0 (Windows NT 10.0; Win64; x64) AppleWebKit/537.36 (KHTML, like Gecko) Chrome/127.0.0.0 Safari/537.36 Edg/127.0.0.0" version="24.7.7">
  <diagram name="Page-1" id="ghSY1P9tos-uLn9o6eo6">
    <mxGraphModel dx="2902" dy="914" grid="1" gridSize="10" guides="1" tooltips="1" connect="1" arrows="1" fold="1" page="1" pageScale="1" pageWidth="850" pageHeight="1100" math="0" shadow="0">
      <root>
        <mxCell id="0" />
        <mxCell id="1" parent="0" />
        <mxCell id="Dum29jT22pE4VamOb7n2-19" value="" style="edgeStyle=orthogonalEdgeStyle;rounded=0;orthogonalLoop=1;jettySize=auto;html=1;" edge="1" parent="1" source="Dum29jT22pE4VamOb7n2-2" target="Dum29jT22pE4VamOb7n2-3">
          <mxGeometry relative="1" as="geometry" />
        </mxCell>
        <mxCell id="Dum29jT22pE4VamOb7n2-2" value="FUNCTIONAL ROLES" style="rounded=1;whiteSpace=wrap;html=1;" vertex="1" parent="1">
          <mxGeometry x="680" y="1200" width="120" height="60" as="geometry" />
        </mxCell>
        <mxCell id="Dum29jT22pE4VamOb7n2-20" value="" style="edgeStyle=orthogonalEdgeStyle;rounded=0;orthogonalLoop=1;jettySize=auto;html=1;" edge="1" parent="1" source="Dum29jT22pE4VamOb7n2-3" target="Dum29jT22pE4VamOb7n2-4">
          <mxGeometry relative="1" as="geometry" />
        </mxCell>
        <mxCell id="Dum29jT22pE4VamOb7n2-3" value="ACCESS ROLES" style="rounded=1;whiteSpace=wrap;html=1;" vertex="1" parent="1">
          <mxGeometry x="680" y="1040" width="120" height="60" as="geometry" />
        </mxCell>
        <mxCell id="Dum29jT22pE4VamOb7n2-4" value="SYSADMIN" style="rounded=1;whiteSpace=wrap;html=1;" vertex="1" parent="1">
          <mxGeometry x="680" y="880" width="120" height="60" as="geometry" />
        </mxCell>
        <mxCell id="Dum29jT22pE4VamOb7n2-5" value="SECURITYADMIN" style="rounded=1;whiteSpace=wrap;html=1;" vertex="1" parent="1">
          <mxGeometry x="200" y="880" width="160" height="60" as="geometry" />
        </mxCell>
        <mxCell id="Dum29jT22pE4VamOb7n2-22" value="" style="edgeStyle=orthogonalEdgeStyle;rounded=0;orthogonalLoop=1;jettySize=auto;html=1;" edge="1" parent="1" source="Dum29jT22pE4VamOb7n2-7" target="Dum29jT22pE4VamOb7n2-8">
          <mxGeometry relative="1" as="geometry" />
        </mxCell>
        <mxCell id="Dum29jT22pE4VamOb7n2-7" value="MIW_ADMIN_RO" style="rounded=1;whiteSpace=wrap;html=1;" vertex="1" parent="1">
          <mxGeometry x="440" y="630" width="160" height="60" as="geometry" />
        </mxCell>
        <mxCell id="Dum29jT22pE4VamOb7n2-23" value="" style="edgeStyle=orthogonalEdgeStyle;rounded=0;orthogonalLoop=1;jettySize=auto;html=1;" edge="1" parent="1" source="Dum29jT22pE4VamOb7n2-8" target="Dum29jT22pE4VamOb7n2-9">
          <mxGeometry relative="1" as="geometry">
            <Array as="points">
              <mxPoint x="520" y="400" />
              <mxPoint x="520" y="400" />
            </Array>
          </mxGeometry>
        </mxCell>
        <mxCell id="Dum29jT22pE4VamOb7n2-8" value="MIW ADMIN" style="rounded=1;whiteSpace=wrap;html=1;" vertex="1" parent="1">
          <mxGeometry x="440" y="480" width="160" height="60" as="geometry" />
        </mxCell>
        <mxCell id="Dum29jT22pE4VamOb7n2-24" value="" style="edgeStyle=orthogonalEdgeStyle;rounded=0;orthogonalLoop=1;jettySize=auto;html=1;" edge="1" parent="1" source="Dum29jT22pE4VamOb7n2-9" target="Dum29jT22pE4VamOb7n2-10">
          <mxGeometry relative="1" as="geometry" />
        </mxCell>
        <mxCell id="Dum29jT22pE4VamOb7n2-9" value="ACCOUNTADMIN" style="rounded=1;whiteSpace=wrap;html=1;" vertex="1" parent="1">
          <mxGeometry x="440" y="310" width="150" height="60" as="geometry" />
        </mxCell>
        <mxCell id="Dum29jT22pE4VamOb7n2-10" value="ORG ADMIN" style="rounded=1;whiteSpace=wrap;html=1;" vertex="1" parent="1">
          <mxGeometry x="440" y="150" width="150" height="60" as="geometry" />
        </mxCell>
        <mxCell id="Dum29jT22pE4VamOb7n2-12" style="edgeStyle=orthogonalEdgeStyle;rounded=0;orthogonalLoop=1;jettySize=auto;html=1;exitX=0.5;exitY=1;exitDx=0;exitDy=0;" edge="1" parent="1" source="Dum29jT22pE4VamOb7n2-4" target="Dum29jT22pE4VamOb7n2-4">
          <mxGeometry relative="1" as="geometry" />
        </mxCell>
        <mxCell id="Dum29jT22pE4VamOb7n2-16" style="edgeStyle=orthogonalEdgeStyle;rounded=0;orthogonalLoop=1;jettySize=auto;html=1;entryX=0.5;entryY=1;entryDx=0;entryDy=0;" edge="1" parent="1" source="Dum29jT22pE4VamOb7n2-13" target="Dum29jT22pE4VamOb7n2-7">
          <mxGeometry relative="1" as="geometry" />
        </mxCell>
        <mxCell id="Dum29jT22pE4VamOb7n2-17" style="edgeStyle=orthogonalEdgeStyle;rounded=0;orthogonalLoop=1;jettySize=auto;html=1;entryX=0.5;entryY=1;entryDx=0;entryDy=0;" edge="1" parent="1" source="Dum29jT22pE4VamOb7n2-13" target="Dum29jT22pE4VamOb7n2-5">
          <mxGeometry relative="1" as="geometry" />
        </mxCell>
        <mxCell id="Dum29jT22pE4VamOb7n2-18" style="edgeStyle=orthogonalEdgeStyle;rounded=0;orthogonalLoop=1;jettySize=auto;html=1;entryX=0.5;entryY=1;entryDx=0;entryDy=0;" edge="1" parent="1" source="Dum29jT22pE4VamOb7n2-13" target="Dum29jT22pE4VamOb7n2-2">
          <mxGeometry relative="1" as="geometry" />
        </mxCell>
        <mxCell id="Dum29jT22pE4VamOb7n2-21" style="edgeStyle=orthogonalEdgeStyle;rounded=0;orthogonalLoop=1;jettySize=auto;html=1;entryX=0;entryY=0.5;entryDx=0;entryDy=0;" edge="1" parent="1" source="Dum29jT22pE4VamOb7n2-13" target="Dum29jT22pE4VamOb7n2-4">
          <mxGeometry relative="1" as="geometry">
            <Array as="points">
              <mxPoint x="560" y="910" />
            </Array>
          </mxGeometry>
        </mxCell>
        <mxCell id="Dum29jT22pE4VamOb7n2-13" value="PUBLIC" style="rounded=1;whiteSpace=wrap;html=1;" vertex="1" parent="1">
          <mxGeometry x="440" y="1350" width="160" height="60" as="geometry" />
        </mxCell>
        <mxCell id="Dum29jT22pE4VamOb7n2-26" value="uSER/rOLES AND gRANT mANAGEMENT" style="text;strokeColor=none;align=center;fillColor=none;html=1;verticalAlign=middle;whiteSpace=wrap;rounded=0;" vertex="1" parent="1">
          <mxGeometry x="-20" y="880" width="150" height="70" as="geometry" />
        </mxCell>
        <mxCell id="Dum29jT22pE4VamOb7n2-27" value="Object Manahement" style="text;strokeColor=none;align=center;fillColor=none;html=1;verticalAlign=middle;whiteSpace=wrap;rounded=0;" vertex="1" parent="1">
          <mxGeometry x="830" y="895" width="220" height="30" as="geometry" />
        </mxCell>
        <mxCell id="Dum29jT22pE4VamOb7n2-28" value="Read Only access to all Schemas&lt;br&gt;Operate on all warehouses" style="text;strokeColor=none;align=center;fillColor=none;html=1;verticalAlign=middle;whiteSpace=wrap;rounded=0;" vertex="1" parent="1">
          <mxGeometry x="640" y="640" width="230" height="30" as="geometry" />
        </mxCell>
        <mxCell id="Dum29jT22pE4VamOb7n2-30" value="Write access to all Databases and Schemas&lt;br&gt;Operate Privilege on all warehouse&lt;br&gt;Owner of managed schemas" style="text;strokeColor=none;align=center;fillColor=none;html=1;verticalAlign=middle;whiteSpace=wrap;rounded=0;" vertex="1" parent="1">
          <mxGeometry x="630" y="450" width="270" height="140" as="geometry" />
        </mxCell>
        <mxCell id="Dum29jT22pE4VamOb7n2-31" value="" style="endArrow=none;dashed=1;html=1;dashPattern=1 3;strokeWidth=2;rounded=0;" edge="1" parent="1">
          <mxGeometry width="50" height="50" relative="1" as="geometry">
            <mxPoint x="280" y="660" as="sourcePoint" />
            <mxPoint x="440" y="660" as="targetPoint" />
          </mxGeometry>
        </mxCell>
        <mxCell id="Dum29jT22pE4VamOb7n2-32" value="" style="endArrow=none;dashed=1;html=1;dashPattern=1 3;strokeWidth=2;rounded=0;" edge="1" parent="1">
          <mxGeometry width="50" height="50" relative="1" as="geometry">
            <mxPoint x="280" y="510" as="sourcePoint" />
            <mxPoint x="280" y="659.29" as="targetPoint" />
          </mxGeometry>
        </mxCell>
        <mxCell id="Dum29jT22pE4VamOb7n2-33" value="" style="endArrow=none;dashed=1;html=1;dashPattern=1 3;strokeWidth=2;rounded=0;" edge="1" parent="1" source="Dum29jT22pE4VamOb7n2-34">
          <mxGeometry width="50" height="50" relative="1" as="geometry">
            <mxPoint x="280" y="509.28999999999996" as="sourcePoint" />
            <mxPoint x="440" y="509.28999999999996" as="targetPoint" />
          </mxGeometry>
        </mxCell>
        <mxCell id="Dum29jT22pE4VamOb7n2-35" value="" style="endArrow=none;dashed=1;html=1;dashPattern=1 3;strokeWidth=2;rounded=0;" edge="1" parent="1" target="Dum29jT22pE4VamOb7n2-34">
          <mxGeometry width="50" height="50" relative="1" as="geometry">
            <mxPoint x="280" y="509.28999999999996" as="sourcePoint" />
            <mxPoint x="440" y="509.28999999999996" as="targetPoint" />
          </mxGeometry>
        </mxCell>
        <mxCell id="Dum29jT22pE4VamOb7n2-34" value="" style="html=1;shadow=0;dashed=0;align=center;verticalAlign=middle;shape=mxgraph.arrows2.arrow;dy=0.6;dx=40;notch=0;" vertex="1" parent="1">
          <mxGeometry x="410" y="500" width="30" height="20" as="geometry" />
        </mxCell>
        <mxCell id="Dum29jT22pE4VamOb7n2-36" value="Default &lt;b&gt;Admin&lt;/b&gt; role will be : MIW_ADMIN_RO&lt;br&gt;To make changes in the account approval is needed to swtich to MIW_ADMIN role" style="text;strokeColor=none;align=center;fillColor=none;html=1;verticalAlign=middle;whiteSpace=wrap;rounded=0;" vertex="1" parent="1">
          <mxGeometry x="70" y="540" width="210" height="100" as="geometry" />
        </mxCell>
      </root>
    </mxGraphModel>
  </diagram>
</mxfile>
